<?xml version="1.0" standalone="no"?>
<!DOCTYPE svg PUBLIC "-//W3C//DTD SVG 20010904//EN"
 "http://www.w3.org/TR/2001/REC-SVG-20010904/DTD/svg10.dtd">
<svg version="1.0" xmlns="http://www.w3.org/2000/svg"
 width="623.000000pt" height="546.000000pt" viewBox="0 0 623.000000 546.000000"
 preserveAspectRatio="xMidYMid meet">

<g transform="translate(0.000000,546.000000) scale(0.100000,-0.100000)"
fill="#000000" stroke="none">
<path d="M3356 5168 c9 -15 14 -22 54 -68 16 -19 30 -38 30 -41 0 -3 8 -15 18
-27 21 -25 56 -69 81 -102 33 -42 32 -17 -1 50 -31 64 -152 200 -178 200 -6 0
-8 -5 -4 -12z"/>
<path d="M1762 5099 c10 -5 15 -17 12 -27 -4 -11 -3 -13 3 -5 12 16 52 -34 93
-118 33 -69 69 -113 113 -142 30 -19 36 -54 12 -64 -9 -3 -42 0 -74 7 -71 15
-103 3 -138 -49 -20 -29 -22 -43 -17 -85 13 -111 69 -385 90 -439 3 -9 2 -17
-3 -17 -5 0 -47 73 -92 163 -46 89 -92 171 -102 183 -10 11 -56 40 -101 64
-46 23 -111 63 -146 87 -75 53 -119 70 -135 54 -8 -8 -5 -11 12 -11 14 0 47
-24 91 -67 120 -119 151 -143 186 -143 9 0 25 -10 35 -22 18 -20 18 -23 3 -39
-12 -14 -31 -18 -70 -18 -66 1 -113 -30 -130 -84 -10 -33 -7 -46 25 -124 36
-87 102 -215 188 -366 l45 -78 45 42 c45 41 46 41 107 37 l61 -5 -3 49 c-2 27
2 62 8 79 13 31 97 112 109 105 4 -3 8 4 8 15 2 18 0 18 -29 3 -44 -23 -62 -1
-20 23 46 26 43 53 -6 53 -41 0 -72 23 -72 53 0 9 14 32 31 52 28 32 30 39 20
61 -6 14 -11 36 -11 49 0 16 -6 25 -16 25 -13 0 -15 7 -11 30 5 25 2 31 -20
42 -34 17 -39 34 -12 41 54 14 106 -39 96 -99 -4 -23 -1 -47 8 -65 8 -15 15
-40 15 -55 0 -15 14 -49 31 -76 28 -44 31 -55 26 -103 l-5 -53 44 -15 44 -14
0 34 c0 61 43 129 92 145 7 3 -1 51 -25 145 -20 77 -48 198 -62 269 -14 71
-28 140 -31 153 -3 14 -51 72 -108 130 -56 58 -111 117 -121 131 -28 35 -75
70 -94 70 -14 -1 -14 -2 1 -11z m108 -507 c0 -23 -19 -42 -41 -42 -24 0 -31
26 -13 45 21 21 54 19 54 -3z m-355 -363 c0 -15 -7 -25 -19 -27 -27 -6 -38 19
-19 41 21 23 38 17 38 -14z m98 -77 c9 -9 20 -37 26 -62 5 -24 16 -49 24 -55
8 -5 19 -26 26 -46 6 -20 19 -44 29 -55 10 -10 18 -30 19 -43 2 -23 2 -23 -19
-5 -20 19 -21 19 -13 -5 6 -20 4 -23 -9 -18 -10 4 -15 3 -11 -3 9 -14 -29 -12
-43 2 -16 16 -15 60 3 84 20 27 18 52 -5 66 -11 7 -20 23 -20 35 0 16 -6 23
-20 23 -16 0 -20 7 -20 30 0 26 -4 30 -27 30 -16 0 -34 4 -42 9 -11 7 -10 11
5 20 29 16 79 13 97 -7z"/>
<path d="M3306 4972 c31 -23 40 -26 43 -14 4 20 -26 42 -57 42 -23 0 -22 -2
14 -28z"/>
<path d="M3465 4897 c10 -15 20 -25 23 -22 3 3 -5 16 -17 28 l-23 22 17 -28z"/>
<path d="M3243 4817 c-12 -18 -36 -63 -54 -102 -18 -38 -39 -78 -46 -87 -11
-12 -12 -21 -4 -37 6 -11 11 -34 11 -51 0 -38 16 -31 25 10 4 18 11 27 17 24
7 -4 8 -2 4 4 -4 6 12 68 35 137 23 69 40 128 38 130 -3 2 -14 -11 -26 -28z"/>
<path d="M3328 4772 c-15 -6 -14 -11 12 -41 26 -29 28 -35 15 -48 -8 -8 -15
-26 -15 -41 l1 -27 27 32 c25 29 28 31 37 14 18 -33 117 -151 127 -151 25 0
-49 122 -116 193 -27 29 -49 55 -48 59 1 4 -6 4 -15 1 -11 -4 -14 -3 -9 5 8
13 8 13 -16 4z"/>
<path d="M2348 4657 c24 -43 50 -109 59 -150 30 -132 54 -170 100 -158 36 10
98 -4 134 -30 l29 -20 11 28 c14 35 19 74 8 68 -4 -3 -23 17 -43 43 -46 64
-114 125 -165 151 -22 12 -71 49 -108 84 l-67 62 42 -78z m176 -143 c17 -16
21 -36 10 -47 -8 -7 -46 11 -56 27 -23 34 16 51 46 20z"/>
<path d="M3054 4576 c-19 -9 -17 -12 29 -43 27 -18 50 -33 52 -33 2 0 -4 18
-13 39 -18 43 -35 52 -68 37z"/>
<path d="M3721 4540 c-14 -19 -31 -42 -38 -50 -8 -8 -22 -26 -33 -39 -17 -21
-20 -21 -20 -6 0 34 -12 7 -26 -57 -19 -89 -17 -96 12 -52 14 21 39 52 55 67
35 35 82 129 77 154 -3 14 -8 11 -27 -17z"/>
<path d="M3240 4540 c-8 -14 -8 -26 -2 -32 6 -6 12 0 16 17 9 35 1 43 -14 15z"/>
<path d="M5096 4533 c-19 -20 67 -83 114 -83 26 0 25 12 -2 37 -38 35 -98 59
-112 46z"/>
<path d="M3349 4511 c6 -11 19 -24 28 -30 16 -8 15 -11 -1 -36 -17 -26 -17
-28 -1 -22 9 4 28 7 41 7 18 0 24 5 24 21 0 11 5 29 11 40 9 18 8 19 -8 11
-22 -12 -75 -13 -68 -1 3 4 -4 13 -15 19 -20 11 -21 10 -11 -9z"/>
<path d="M2916 4484 c-40 -42 -45 -60 -18 -68 9 -3 32 -19 50 -35 17 -17 32
-26 32 -21 0 5 14 25 31 44 19 23 28 42 25 53 -5 15 -41 43 -78 61 -4 2 -23
-14 -42 -34z"/>
<path d="M3450 4440 c0 -5 5 -10 11 -10 5 0 7 5 4 10 -3 6 -8 10 -11 10 -2 0
-4 -4 -4 -10z"/>
<path d="M5250 4431 c0 -21 142 -126 160 -119 12 4 -8 28 -60 70 -47 38 -100
64 -100 49z"/>
<path d="M3135 4380 c6 -10 0 -11 -27 -6 -30 5 -38 3 -51 -18 -30 -46 -28 -48
71 -49 98 -2 113 6 63 36 -34 20 -41 21 -41 6 0 -5 4 -8 8 -5 4 2 14 1 21 -3
9 -6 3 -9 -15 -9 -41 0 -48 7 -29 28 12 14 13 20 4 26 -8 5 -10 3 -4 -6z"/>
<path d="M3681 4366 c-9 -11 -6 -12 14 -8 14 2 25 8 25 13 0 14 -26 11 -39 -5z"/>
<path d="M2808 4360 c-9 -6 -19 -24 -23 -40 -7 -31 -20 -39 -28 -17 -4 9 -8 8
-16 -3 -20 -28 -13 -42 17 -36 15 2 57 10 95 16 80 15 87 32 27 73 -28 19 -47
21 -72 7z"/>
<path d="M3379 4355 c-14 -7 -30 -25 -37 -39 -10 -23 -9 -26 7 -26 10 0 33 -3
50 -6 27 -6 31 -4 31 15 0 12 -4 19 -10 16 -7 -4 -7 3 0 20 6 15 10 28 10 31
0 8 -25 3 -51 -11z"/>
<path d="M3840 4317 c0 -4 9 -24 20 -44 11 -21 20 -48 20 -60 0 -22 0 -22 33
-5 17 9 33 20 35 23 1 3 14 4 27 1 19 -3 25 0 25 14 0 9 8 26 18 37 16 20 16
20 -2 13 -12 -4 -22 -2 -27 6 -11 17 -18 7 -21 -25 -3 -32 -16 -34 -52 -6 -23
18 -25 19 -20 2 3 -10 -2 -7 -10 7 -8 14 -16 21 -16 15 0 -5 -7 -1 -15 9 -8
11 -15 17 -15 13z"/>
<path d="M3458 4299 c-18 -11 -1 -25 39 -34 25 -5 32 -3 28 7 -8 19 -51 37
-67 27z"/>
<path d="M2507 4279 c-14 -8 -15 -13 -5 -22 31 -30 66 -45 91 -40 40 8 44 23
13 50 -29 24 -69 29 -99 12z"/>
<path d="M3679 4278 c-33 -27 -31 -48 6 -64 40 -16 48 -17 41 -5 -3 5 1 12 10
15 24 9 26 8 14 -13 -8 -16 -5 -21 22 -30 36 -13 48 -3 40 34 -10 52 -96 93
-133 63z"/>
<path d="M3950 4152 c-19 -9 -35 -21 -37 -27 -2 -8 114 -77 158 -93 5 -2 9 13
9 33 0 29 -7 44 -31 66 -18 16 -34 27 -37 24 -3 -2 -10 -1 -17 5 -7 6 -23 3
-45 -8z"/>
<path d="M2197 4131 c-26 -31 -33 -63 -21 -94 4 -12 17 -9 65 20 32 19 59 37
59 40 0 2 -9 -1 -19 -7 -25 -13 -31 -13 -31 3 -1 6 -6 25 -13 41 l-13 29 -27
-32z"/>
<path d="M2315 4110 c-3 -6 1 -7 9 -4 18 7 21 14 7 14 -6 0 -13 -4 -16 -10z"/>
<path d="M4157 4113 c-4 -3 -7 -22 -7 -41 0 -28 3 -33 18 -27 9 3 29 9 45 12
15 3 27 12 27 19 0 8 -12 17 -27 20 -16 4 -33 11 -39 15 -6 5 -14 6 -17 2z"/>
<path d="M3027 4043 c-3 -5 2 -83 11 -175 l16 -168 49 0 c34 0 47 4 44 13 -2
6 -17 12 -33 12 l-29 0 -3 73 c-3 74 -2 77 41 73 9 -1 17 2 17 8 0 5 -15 11
-32 13 -33 3 -33 3 -36 66 -3 59 -2 62 20 63 45 2 51 4 55 17 4 9 -12 12 -56
12 -33 0 -62 -3 -64 -7z"/>
<path d="M2878 3883 c-3 -134 -4 -145 -17 -121 -8 15 -18 25 -24 21 -6 -3 -7
-1 -3 5 8 14 -69 182 -84 182 -6 0 -9 4 -5 9 3 5 -8 9 -25 9 -16 -1 -30 -6
-30 -12 0 -26 37 -115 45 -108 4 4 5 2 1 -5 -8 -15 42 -183 55 -183 5 0 6 -7
3 -15 -4 -10 0 -15 10 -15 19 0 18 7 -21 135 -38 123 -38 124 -14 95 11 -14
39 -67 63 -117 23 -51 48 -93 55 -93 10 0 13 29 14 118 1 170 12 179 34 29 13
-87 23 -127 32 -127 17 0 16 18 -2 143 -8 56 -17 123 -20 150 -6 44 -8 47 -35
47 l-29 0 -3 -147z"/>
<path d="M3374 4006 c-20 -18 -28 -40 -44 -141 -11 -66 -20 -126 -20 -133 0
-7 18 -32 40 -54 22 -23 40 -46 40 -50 0 -4 5 -8 10 -8 7 0 7 6 1 19 -8 14 -6
23 10 37 31 28 44 58 74 177 24 93 26 111 15 132 -22 42 -90 53 -126 21z m81
-20 c17 -13 17 -17 -10 -132 -34 -143 -40 -156 -68 -152 -29 4 -34 55 -13 136
9 33 16 75 16 93 0 33 23 69 45 69 6 0 19 -6 30 -14z"/>
<path d="M1968 3974 c-34 -18 -53 -71 -39 -108 6 -14 14 -26 17 -26 4 0 28 19
53 43 25 23 57 50 71 59 24 17 25 18 6 33 -24 18 -72 18 -108 -1z"/>
<path d="M4188 3979 c-26 -15 -23 -22 25 -57 23 -17 54 -42 70 -57 22 -21 28
-23 33 -11 3 8 -2 26 -11 40 -13 20 -14 26 -4 26 7 0 -1 10 -17 23 -17 12 -29
28 -27 35 6 15 -44 16 -69 1z"/>
<path d="M3597 3957 c-3 -12 -24 -76 -47 -141 -48 -138 -49 -174 -6 -195 55
-26 75 -8 138 119 31 63 55 117 52 121 -2 4 3 12 11 19 20 17 19 27 -4 39 -17
10 -25 -3 -81 -135 -59 -137 -64 -145 -89 -142 -14 2 -27 10 -29 19 -2 9 18
72 43 140 25 68 48 131 51 141 4 10 -2 20 -14 27 -17 9 -21 7 -25 -12z"/>
<path d="M4270 3972 c0 -4 10 -13 23 -21 22 -14 22 -14 3 8 -20 22 -26 25 -26
13z"/>
<path d="M2543 3930 c-24 -11 -43 -23 -43 -27 0 -5 34 -77 75 -161 68 -140 76
-152 94 -142 11 5 32 15 47 20 21 8 24 14 16 22 -9 9 -15 9 -24 0 -20 -20 -38
-13 -55 23 -9 19 -20 32 -25 29 -4 -3 -5 2 -2 10 3 8 1 23 -5 34 -9 17 -6 22
19 32 17 7 30 16 30 21 0 12 -37 11 -45 -1 -13 -21 -26 -8 -50 46 -14 31 -25
60 -25 63 0 4 16 13 35 20 37 13 47 31 18 30 -10 0 -37 -9 -60 -19z"/>
<path d="M4393 3890 c-2 -50 4 -57 37 -42 9 4 15 13 14 20 -1 6 -2 18 -3 26
-1 15 -28 46 -39 46 -4 0 -8 -23 -9 -50z"/>
<path d="M2391 3842 c-14 -2 -46 -18 -72 -36 -41 -28 -45 -34 -34 -49 7 -9 21
-29 31 -43 25 -34 165 -218 170 -223 2 -2 6 3 10 12 3 9 -11 40 -36 77 -45 66
-46 94 -5 98 22 2 33 -9 67 -63 42 -65 51 -74 63 -55 5 8 -38 88 -55 100 -3 3
-9 13 -13 23 -3 9 -13 17 -22 17 -10 0 -15 10 -15 28 0 61 -47 121 -89 114z
m34 -69 c30 -44 30 -51 8 -75 -17 -19 -53 -25 -53 -7 0 5 -11 27 -25 47 -30
43 -31 59 -7 65 39 10 52 5 77 -30z"/>
<path d="M3875 3841 c-3 -6 -3 -16 1 -23 4 -7 3 -8 -5 -4 -12 7 -26 -8 -115
-118 -26 -34 -59 -74 -72 -90 -17 -21 -21 -33 -13 -40 7 -8 17 -3 33 18 21 25
26 27 47 16 45 -24 48 -29 33 -58 -17 -34 -18 -42 -1 -42 7 0 23 21 34 48 12
26 40 87 62 135 49 107 53 134 24 154 -14 9 -23 11 -28 4z m5 -74 c0 -10 -69
-160 -77 -168 -6 -6 -18 0 -33 16 -15 16 -20 29 -15 33 6 4 32 33 59 65 41 48
66 69 66 54z"/>
<path d="M1759 3765 c-14 -8 -32 -28 -39 -46 -12 -27 -11 -36 5 -65 22 -41 28
-42 50 -7 10 14 36 46 58 70 33 36 38 46 26 54 -21 13 -70 10 -100 -6z"/>
<path d="M4408 3773 c-10 -2 -18 -7 -18 -9 0 -3 28 -37 62 -75 41 -46 64 -65
69 -57 4 7 3 18 -2 25 -6 7 -7 18 -3 24 5 8 3 9 -6 4 -10 -6 -12 -1 -7 26 5
23 4 29 -3 19 -8 -13 -11 -13 -22 -1 -7 8 -8 11 -2 8 7 -4 14 0 18 8 3 8 2 14
-2 13 -4 -1 -20 4 -35 10 -16 7 -29 11 -30 11 -1 -1 -10 -3 -19 -6z"/>
<path d="M4018 3687 c-15 -23 -40 -56 -55 -72 -44 -48 -123 -147 -123 -154 0
-16 49 -53 61 -46 7 5 10 4 5 -3 -3 -6 -2 -13 4 -17 18 -11 10 22 -10 40 -11
10 -20 21 -20 24 0 3 25 33 56 66 30 33 62 72 71 88 10 15 21 27 26 27 4 0 5
5 1 12 -4 6 -3 8 4 4 6 -3 19 6 31 22 19 28 19 28 0 40 -24 16 -20 18 -51 -31z"/>
<path d="M2185 3695 c-16 -7 -45 -28 -62 -47 l-33 -34 125 -124 c98 -98 127
-122 137 -112 10 10 2 23 -36 61 l-49 50 28 32 c22 27 26 39 21 68 -3 20 -15
44 -26 53 -12 9 -20 20 -20 24 1 4 -11 15 -27 25 -24 15 -32 16 -58 4z m46
-47 c11 -13 28 -33 36 -45 8 -13 19 -20 24 -17 13 7 -1 -28 -19 -48 -8 -10
-19 -18 -23 -18 -15 0 -103 101 -104 120 -1 11 1 17 5 15 3 -2 12 0 20 6 23
14 38 11 61 -13z"/>
<path d="M4610 3675 c0 -14 2 -25 4 -25 2 0 6 11 8 25 3 14 1 25 -3 25 -5 0
-9 -11 -9 -25z"/>
<path d="M1577 3609 c6 -21 8 -21 37 -10 18 7 17 9 -11 18 -28 10 -30 9 -26
-8z"/>
<path d="M4085 3483 c-60 -58 -109 -110 -108 -115 2 -4 -3 -7 -10 -5 -6 1 -12
-5 -12 -13 0 -34 28 -14 184 129 14 13 41 36 60 52 29 24 32 30 21 43 -7 9
-15 16 -19 16 -3 0 -55 -48 -116 -107z"/>
<path d="M2010 3525 c-11 -13 -10 -18 3 -28 135 -105 218 -176 223 -191 8 -25
-18 -50 -45 -41 -12 3 -42 22 -66 41 -25 19 -49 34 -54 34 -5 0 -11 3 -13 8
-1 4 -27 25 -56 46 -43 31 -55 36 -67 26 -8 -7 -15 -16 -15 -21 0 -5 55 -44
123 -89 134 -88 168 -97 205 -57 36 39 28 68 -35 130 -32 31 -70 65 -84 76
-14 11 -40 33 -58 50 -38 35 -44 37 -61 16z"/>
<path d="M1580 3510 c-43 -43 -47 -101 -11 -134 17 -15 21 -11 65 64 25 44 46
82 46 85 0 3 -18 5 -40 5 -27 0 -47 -7 -60 -20z"/>
<path d="M4580 3522 c0 -5 6 -16 13 -26 12 -16 14 -16 26 -2 7 8 10 20 6 26
-7 12 -45 14 -45 2z"/>
<path d="M4265 3500 c-3 -5 0 -19 7 -30 14 -23 13 -24 -57 -73 -14 -10 -22
-23 -19 -29 4 -7 2 -8 -4 -4 -6 4 -42 -17 -79 -45 -93 -72 -89 -67 -75 -81 9
-9 32 2 99 48 48 32 108 74 132 93 l45 34 14 -22 c8 -11 18 -21 23 -21 13 0
11 27 -3 42 -7 7 -26 32 -42 56 -31 46 -32 46 -41 32z"/>
<path d="M4670 3498 c0 -6 -3 -9 -6 -5 -4 3 -14 -2 -23 -11 -9 -10 -12 -12 -7
-5 5 8 4 13 -2 13 -27 0 -13 -54 29 -107 l17 -23 16 25 c12 18 14 30 6 50 -6
15 -8 30 -5 35 7 11 -5 40 -16 40 -5 0 -9 -5 -9 -12z"/>
<path d="M1466 3420 c4 -26 3 -31 -5 -20 -9 12 -11 11 -11 -7 0 -15 5 -21 14
-17 10 4 14 0 12 -12 -3 -20 -26 -32 -26 -14 0 6 -5 8 -11 5 -6 -4 -8 -14 -5
-22 4 -10 2 -13 -7 -10 -8 3 -14 0 -14 -7 0 -8 13 -7 48 4 41 13 46 17 37 34
-5 10 -16 37 -24 60 -13 39 -13 39 -8 6z"/>
<path d="M4356 3325 c-9 -14 -14 -25 -12 -25 2 0 -8 -13 -22 -29 -15 -15 -40
-43 -55 -60 -15 -18 -53 -46 -85 -63 -70 -38 -65 -34 -55 -52 7 -13 18 -10 76
19 65 33 123 43 265 45 10 0 10 5 2 21 -11 19 -17 20 -87 14 -72 -7 -75 -7
-65 12 6 11 18 25 26 33 9 7 16 19 16 28 0 8 3 12 7 9 11 -12 35 32 28 53 -8
27 -19 25 -39 -5z"/>
<path d="M982 3300 c-12 -12 -22 -32 -22 -45 0 -25 31 -65 50 -65 6 0 1 -13
-11 -30 -19 -25 -21 -33 -11 -55 7 -14 23 -31 37 -37 22 -10 30 -8 53 9 15 11
28 30 30 42 3 15 10 21 31 21 52 0 81 45 58 89 -16 32 -48 43 -81 26 -22 -12
-26 -12 -26 1 0 21 -45 64 -68 64 -10 0 -28 -9 -40 -20z m86 -23 c4 -20 -25
-34 -40 -19 -15 15 -1 44 19 40 10 -2 19 -11 21 -21z m122 -58 c0 -14 -7 -19
-25 -19 -18 0 -25 5 -25 19 0 11 6 21 13 24 20 7 37 -4 37 -24z m-110 -19 c0
-13 -5 -18 -15 -14 -12 5 -13 10 -4 20 15 19 19 18 19 -6z m10 -56 c0 -19 -28
-30 -43 -15 -8 8 -6 15 8 25 22 16 35 12 35 -10z"/>
<path d="M4920 3300 c0 -5 5 -10 10 -10 6 0 10 5 10 10 0 6 -4 10 -10 10 -5 0
-10 -4 -10 -10z"/>
<path d="M1859 3287 c-23 -17 -49 -72 -49 -101 0 -31 43 -66 82 -66 16 0 50
11 76 25 69 37 143 29 158 -17 13 -44 -24 -55 -103 -32 -19 5 -23 2 -23 -15 0
-22 30 -34 84 -34 34 0 76 42 76 77 0 33 -51 77 -97 83 -28 4 -56 -2 -100 -21
-48 -20 -68 -24 -87 -17 -31 12 -39 26 -32 56 8 31 38 40 75 20 28 -14 31 -14
40 3 8 15 4 22 -19 35 -33 20 -59 21 -81 4z"/>
<path d="M4876 3277 c5 -29 11 -31 29 -13 19 19 12 35 -14 33 -13 -1 -18 -7
-15 -20z"/>
<path d="M1376 3274 c-5 -14 -4 -15 9 -4 17 14 19 20 6 20 -5 0 -12 -7 -15
-16z"/>
<path d="M1449 3231 c-37 -38 -39 -88 -5 -128 13 -15 26 -26 29 -23 2 3 15 37
29 75 15 39 29 78 33 88 13 31 -51 22 -86 -12z"/>
<path d="M4732 3228 c6 -18 14 -37 18 -43 4 -5 13 -31 20 -57 14 -53 31 -55
56 -6 11 21 14 42 9 66 l-7 36 -21 -37 c-25 -45 -34 -47 -32 -7 1 17 -2 30 -7
30 -4 0 -8 -5 -8 -12 0 -6 -3 -8 -7 -4 -5 4 1 14 11 22 19 13 19 14 2 14 -15
0 -16 3 -6 15 11 13 8 15 -13 15 -25 0 -25 -1 -15 -32z"/>
<path d="M667 3092 c-37 -41 -11 -102 42 -102 55 0 80 61 41 100 -25 25 -62
26 -83 2z m78 -8 c12 -12 13 -19 4 -30 -25 -30 -55 -7 -37 29 11 21 13 21 33
1z"/>
<path d="M4872 3067 c-30 -32 -28 -37 13 -34 19 1 35 5 35 8 0 4 15 10 33 15
l32 8 -35 4 c-19 2 -40 8 -46 13 -7 5 -19 0 -32 -14z"/>
<path d="M1127 3062 c-18 -19 -22 -59 -9 -78 28 -42 95 -35 113 13 21 57 -63
110 -104 65z m88 -27 c0 -30 -39 -27 -43 3 -3 20 0 23 20 20 15 -2 23 -10 23
-23z"/>
<path d="M1400 2963 c-51 -19 -66 -77 -30 -113 18 -18 18 -21 5 -26 -20 -8 -1
-34 24 -34 14 0 20 16 30 80 14 95 11 107 -29 93z"/>
<path d="M4820 2928 c5 -31 17 -53 44 -80 l37 -37 12 25 c9 22 8 27 -7 36 -13
7 -16 17 -11 37 5 23 1 31 -19 45 -14 9 -34 16 -44 16 -17 0 -18 -5 -12 -42z"/>
<path d="M947 2939 c-16 -12 -27 -30 -27 -45 0 -31 33 -64 65 -64 30 0 65 32
65 59 0 24 -29 57 -56 65 -13 4 -30 -1 -47 -15z m72 -8 c17 -11 7 -41 -13 -41
-19 0 -29 17 -22 35 6 17 15 18 35 6z"/>
<path d="M5219 2863 c-4 -37 -12 -69 -19 -78 -4 -5 -42 -33 -84 -60 -42 -28
-76 -56 -76 -62 0 -20 17 -15 61 16 56 41 137 67 161 52 33 -21 43 -13 45 34
l2 46 -21 -27 -21 -26 -18 23 c-16 22 -16 25 -2 41 15 17 15 18 -3 19 -11 0
-13 3 -6 6 6 2 10 9 6 14 -6 11 -24 12 -25 2z"/>
<path d="M1041 2831 c-14 -14 -18 -28 -15 -48 8 -42 23 -54 63 -51 27 2 39 10
51 31 13 24 13 30 0 55 -20 35 -70 42 -99 13z m89 -20 c0 -11 -4 -22 -9 -25
-14 -9 -41 5 -41 21 0 8 4 12 9 8 5 -3 12 -1 16 5 10 17 25 11 25 -9z"/>
<path d="M4994 2842 c-22 -15 -37 -53 -24 -66 8 -8 10 -7 5 7 -8 20 14 24 34
5 11 -11 13 -9 8 9 -3 14 -1 21 7 20 6 -1 11 5 11 13 0 17 -24 24 -41 12z"/>
<path d="M5455 2749 c-97 -79 -114 -89 -143 -78 -14 5 -31 8 -39 5 -19 -8 -16
-27 5 -24 12 2 16 -3 15 -17 -1 -11 0 -14 3 -7 8 17 22 15 45 -7 20 -19 20
-19 -10 -32 -34 -15 -31 -32 5 -23 14 4 24 2 24 -5 0 -15 27 -14 33 2 2 6 0
20 -5 30 -12 24 49 115 102 152 22 15 40 31 40 36 0 22 -20 13 -75 -32z"/>
<path d="M896 2765 c-34 -34 -28 -83 14 -105 34 -18 90 17 90 57 0 50 -69 82
-104 48z m84 -24 c0 -27 -19 -36 -37 -18 -18 18 -9 37 18 37 12 0 19 -7 19
-19z"/>
<path d="M1670 2540 l0 -230 25 0 25 0 0 110 0 110 40 0 40 0 0 -110 0 -110
25 0 25 0 -2 228 c-3 227 -3 227 -25 230 -23 3 -23 1 -23 -97 l0 -101 -40 0
-40 0 0 100 0 100 -25 0 -25 0 0 -230z"/>
<path d="M1930 2540 l0 -230 66 0 c57 0 65 2 62 18 -2 12 -13 17 -38 17 l-35
1 -3 87 -3 87 41 0 c33 0 40 3 40 20 0 17 -7 20 -40 20 l-40 0 0 85 0 85 40 0
c33 0 40 3 40 20 0 18 -7 20 -65 20 l-65 0 0 -230z"/>
<path d="M2130 2541 l0 -231 25 0 25 0 0 110 0 110 28 0 c46 0 52 -15 52 -122
0 -98 0 -98 25 -98 25 0 25 1 25 78 0 84 -14 152 -32 152 -6 0 -3 9 8 21 15
17 19 36 19 95 0 96 -11 107 -105 112 l-70 4 0 -231z m120 170 c5 -11 10 -38
10 -61 0 -57 -14 -80 -50 -80 l-30 0 0 80 0 80 30 0 c19 0 33 -7 40 -19z"/>
<path d="M2390 2540 l0 -230 63 0 c68 0 78 4 96 37 17 33 14 164 -5 191 -11
16 -13 26 -5 35 17 22 24 91 12 134 -13 47 -43 63 -117 63 l-44 0 0 -230z
m104 174 c18 -18 22 -95 6 -125 -6 -11 -21 -19 -35 -19 -24 0 -25 2 -25 80 0
72 2 80 19 80 11 0 27 -7 35 -16z m14 -277 l-3 -82 -32 -3 -33 -3 0 90 c0 77
2 90 18 94 9 2 25 0 35 -5 15 -8 17 -21 15 -91z"/>
<path d="M2651 2751 c-27 -27 -36 -91 -18 -133 8 -20 38 -61 66 -92 51 -56 52
-58 49 -113 -6 -104 -68 -97 -71 8 -2 48 -5 54 -24 57 -22 3 -23 0 -23 -53 0
-86 26 -125 85 -125 56 0 85 39 85 115 0 60 -18 100 -74 160 -26 28 -49 61
-53 74 -16 61 45 113 67 56 5 -14 10 -42 10 -61 0 -27 4 -34 19 -34 11 0 21 7
23 17 7 38 -5 102 -23 122 -26 28 -91 29 -118 2z"/>
<path d="M3031 2744 c-27 -34 -26 -69 0 -139 21 -56 21 -57 1 -78 -57 -63 -70
-160 -27 -202 30 -31 73 -32 110 -3 26 20 29 20 40 5 14 -20 49 -23 41 -4 -28
68 -29 84 -6 125 17 30 20 44 12 58 -9 16 -13 14 -33 -20 l-22 -38 -24 47 -24
46 30 48 c35 54 42 121 15 159 -23 33 -86 31 -113 -4z m78 -13 c8 -5 14 -23
14 -39 0 -35 -21 -92 -34 -92 -25 0 -39 106 -17 128 14 14 18 15 37 3z m-9
-287 l23 -56 -25 -25 c-46 -46 -89 -6 -69 64 11 39 30 73 40 73 4 0 18 -25 31
-56z"/>
<path d="M3401 2744 c-24 -30 -28 -101 -10 -137 7 -12 31 -43 56 -69 24 -26
48 -59 53 -73 15 -39 12 -92 -6 -109 -37 -38 -64 -7 -64 73 0 48 -1 51 -26 51
l-27 0 6 -67 c4 -57 9 -71 32 -90 55 -48 126 -15 140 64 10 62 -11 117 -72
184 -44 50 -53 66 -53 97 0 41 14 62 41 62 21 0 29 -20 29 -76 0 -41 2 -44 26
-44 27 0 27 0 21 61 -7 77 -25 99 -83 99 -34 0 -47 -5 -63 -26z"/>
<path d="M3620 2541 l0 -231 25 0 c25 0 25 1 25 90 l0 90 40 0 c26 0 47 7 59
19 37 37 38 187 1 233 -14 18 -31 23 -84 26 l-66 4 0 -231z m108 180 c17 -10
27 -106 15 -151 -8 -30 -14 -35 -41 -38 l-32 -3 0 100 c0 98 1 101 23 101 12
0 28 -4 35 -9z"/>
<path d="M3860 2540 l0 -230 25 0 25 0 0 230 0 230 -25 0 -25 0 0 -230z"/>
<path d="M4019 2744 c-23 -25 -24 -31 -27 -192 -2 -144 0 -172 15 -202 30 -58
105 -67 139 -15 9 14 19 54 22 90 5 65 5 65 -22 65 -25 0 -26 -3 -26 -49 0
-66 -14 -101 -40 -101 -32 0 -40 39 -40 193 0 161 4 184 32 193 30 9 41 -9 46
-76 4 -55 6 -60 28 -60 20 0 24 5 24 33 0 102 -27 147 -89 147 -27 0 -44 -7
-62 -26z"/>
<path d="M4240 2540 l0 -230 66 0 c57 0 65 2 62 18 -2 12 -13 17 -38 17 l-35
1 -3 87 -3 87 41 0 c33 0 40 3 40 20 0 17 -7 20 -40 20 l-40 0 0 85 0 85 40 0
c33 0 40 3 40 20 0 18 -7 20 -65 20 l-65 0 0 -230z"/>
<path d="M4454 2745 c-41 -62 -23 -145 46 -210 44 -41 60 -76 60 -128 0 -48
-17 -71 -47 -65 -20 4 -31 35 -32 96 -1 35 -4 42 -20 42 -15 0 -21 -8 -23 -32
-9 -90 24 -148 84 -148 42 0 64 15 77 51 27 77 4 150 -73 233 -33 35 -46 57
-46 78 0 40 17 68 41 68 23 0 28 -10 31 -70 3 -38 7 -45 26 -48 20 -3 22 0 22
51 0 76 -25 107 -85 107 -36 0 -48 -5 -61 -25z"/>
<path d="M4927 2752 c-10 -10 -17 -22 -17 -25 0 -12 64 -7 89 7 l24 13 -33 12
c-43 14 -44 14 -63 -7z"/>
<path d="M1332 2741 c2 -7 7 -12 11 -12 12 1 9 15 -3 20 -7 2 -11 -2 -8 -8z"/>
<path d="M5145 2580 c-3 -5 -1 -10 5 -10 6 0 8 -5 5 -10 -4 -6 -11 -8 -16 -5
-5 4 -9 1 -9 -4 0 -6 9 -11 20 -11 17 0 19 -4 14 -27 -9 -38 -10 -38 -40 -19
-32 21 -44 13 -20 -13 10 -11 15 -25 11 -30 -13 -23 26 -23 47 -1 18 19 27 21
76 15 30 -4 72 -13 94 -21 53 -18 74 -19 59 0 -6 7 -48 26 -94 41 -83 27 -117
52 -117 86 0 20 -24 26 -35 9z"/>
<path d="M4893 2534 c-45 -38 -53 -54 -27 -54 18 0 84 62 84 79 0 18 -13 13
-57 -25z"/>
<path d="M830 2551 c0 -5 15 -19 34 -30 73 -46 121 -108 118 -156 -2 -23 2
-32 13 -32 8 0 15 5 15 10 0 5 6 7 13 4 8 -3 20 -2 27 3 9 6 6 11 -13 21 -25
14 -25 14 -7 36 15 20 20 21 30 8 19 -23 32 -18 19 7 -10 18 -9 20 5 15 10 -4
16 -1 16 9 0 12 -8 14 -46 8 -41 -6 -49 -3 -84 25 -21 17 -42 31 -45 31 -4 0
-20 11 -37 25 -30 25 -58 33 -58 16z"/>
<path d="M1280 2441 c0 -27 -10 -38 -90 -97 -56 -42 -87 -71 -81 -77 5 -5 29
5 61 27 28 19 67 38 86 42 19 3 34 10 34 15 0 4 16 24 35 44 19 20 32 33 28
31 -3 -3 -21 6 -39 21 l-34 25 0 -31z"/>
<path d="M4980 2397 c0 -7 13 -21 30 -30 79 -47 125 -108 122 -160 -2 -27 -1
-27 40 -21 56 9 58 12 20 26 -35 14 -40 23 -16 32 8 3 12 10 9 16 -9 14 18 12
34 -2 11 -11 12 -9 6 9 -5 19 -3 22 11 16 12 -4 15 -2 12 8 -3 8 -11 13 -19
11 -65 -16 -67 -15 -199 89 -28 22 -50 25 -50 6z"/>
<path d="M4836 2320 c-4 -28 -10 -57 -13 -66 -5 -15 -3 -15 20 0 20 14 30 15
46 7 28 -16 31 -14 31 16 0 29 -44 93 -64 93 -9 0 -16 -19 -20 -50z"/>
<path d="M1360 2334 c0 -8 5 -12 10 -9 6 3 10 10 10 16 0 5 -4 9 -10 9 -5 0
-10 -7 -10 -16z"/>
<path d="M1340 2270 c0 -28 60 -90 88 -90 21 0 23 3 18 26 -4 15 -9 38 -12 53
-5 23 -11 26 -50 28 -37 1 -44 -2 -44 -17z"/>
<path d="M1210 2190 c0 -5 6 -10 13 -11 6 -1 1 -5 -13 -9 l-25 -8 23 -7 c24
-8 25 -9 16 -42 -6 -21 -8 -22 -35 -7 -31 16 -39 5 -13 -20 8 -9 13 -20 9 -25
-11 -19 17 -23 36 -5 18 16 92 22 140 12 7 -2 14 4 16 13 3 11 -12 20 -52 33
-48 15 -59 23 -71 52 -13 31 -44 48 -44 24z"/>
<path d="M926 2114 c-54 -45 -84 -63 -95 -58 -27 12 -54 10 -59 -5 -3 -9 1
-11 18 -6 20 6 21 5 10 -15 -11 -20 -10 -21 10 -10 16 9 25 8 36 -1 20 -17 18
-26 -13 -43 -24 -13 -25 -15 -8 -17 11 -1 26 -2 33 -2 6 1 12 -3 12 -8 0 -5 7
-9 16 -9 13 0 15 7 11 35 -7 43 22 89 96 157 81 74 28 59 -67 -18z"/>
<path d="M4967 2092 c-35 -39 -8 -102 44 -102 33 0 69 31 69 58 0 29 -11 33
-29 12 -11 -13 -21 -17 -30 -11 -18 12 -4 54 15 47 9 -3 12 -1 9 4 -10 17 -61
11 -78 -8z"/>
<path d="M1441 2056 c-8 -10 -9 -16 -1 -21 13 -8 30 3 30 21 0 18 -14 18 -29
0z"/>
<path d="M4769 2033 c-41 -106 -49 -129 -49 -137 0 -10 58 0 75 14 6 5 13 29
14 52 1 24 3 54 4 68 3 37 -30 39 -44 3z"/>
<path d="M1050 2008 c0 -7 23 -28 49 -46 27 -18 60 -49 72 -67 26 -38 59 -52
74 -31 6 7 25 17 43 20 17 4 32 12 32 17 0 16 -27 21 -49 10 -25 -14 -47 -5
-136 59 -74 53 -85 58 -85 38z"/>
<path d="M5297 2002 c-37 -40 -9 -102 46 -102 33 0 57 24 57 59 0 54 -68 82
-103 43z m87 -36 c-4 -9 -14 -16 -23 -14 -20 4 -27 38 -9 49 18 11 40 -13 32
-35z"/>
<path d="M2320 1890 c0 -60 4 -100 10 -100 6 0 10 23 10 50 0 43 3 50 19 50
17 0 21 -8 24 -52 2 -29 3 -6 4 52 0 65 -2 88 -6 60 -4 -32 -11 -46 -23 -48
-15 -3 -18 4 -18 42 0 25 -4 46 -10 46 -6 0 -10 -40 -10 -100z"/>
<path d="M2440 1890 l0 -100 28 1 c26 0 26 1 5 9 -18 7 -23 17 -23 45 0 28 5
38 23 45 l22 9 -22 0 c-19 1 -23 7 -23 36 0 28 5 38 23 45 21 8 21 9 -5 9
l-28 1 0 -100z"/>
<path d="M2542 1923 c-6 -37 -14 -83 -18 -100 -4 -22 -3 -33 5 -33 6 0 11 9
11 20 0 28 38 26 50 -2 8 -20 9 -19 8 12 0 57 -22 163 -34 167 -7 2 -15 -24
-22 -64z m37 -55 c1 -19 -4 -28 -14 -28 -16 0 -20 45 -8 90 l7 25 7 -30 c4
-16 7 -42 8 -57z"/>
<path d="M2640 1890 l0 -100 33 1 c23 1 26 3 10 6 -22 4 -23 9 -23 99 0 56 -4
94 -10 94 -6 0 -10 -40 -10 -100z"/>
<path d="M2718 1983 c8 -3 12 -33 12 -99 0 -56 4 -94 10 -94 6 0 10 38 10 94
0 66 4 96 13 99 6 3 -4 5 -23 5 -19 0 -29 -2 -22 -5z"/>
<path d="M2800 1888 c0 -98 11 -134 14 -46 1 36 4 43 21 43 17 0 20 -8 23 -47
2 -27 6 -48 10 -48 4 0 5 46 3 102 -4 78 -6 92 -10 58 -5 -36 -10 -45 -26 -45
-17 0 -20 6 -19 43 0 23 -3 42 -8 42 -4 0 -8 -46 -8 -102z"/>
<path d="M2995 1978 c-9 -27 -26 -180 -20 -186 3 -3 8 4 12 16 7 28 39 29 48
1 13 -40 16 -10 6 52 -6 35 -14 79 -17 97 -5 32 -21 43 -29 20z m29 -95 c6
-39 4 -43 -15 -43 -19 0 -21 4 -15 31 3 17 6 41 6 52 0 35 17 6 24 -40z"/>
<path d="M3092 1888 c1 -99 2 -100 7 -33 7 78 11 77 35 -7 9 -32 21 -58 26
-58 6 0 10 42 10 100 0 112 -17 138 -22 33 l-3 -68 -23 68 c-13 37 -26 67 -28
67 -2 0 -3 -46 -2 -102z"/>
<path d="M3210 1890 l0 -100 29 0 c36 0 41 13 41 104 0 77 -9 96 -47 96 -22 0
-23 -2 -23 -100z m51 68 c13 -24 6 -135 -9 -150 -22 -22 -32 5 -32 81 0 43 3
81 7 84 11 12 22 8 34 -15z"/>
<path d="M3380 1890 c0 -55 4 -100 9 -100 5 0 7 21 6 46 -3 40 0 47 18 52 l21
5 -21 8 c-31 11 -25 71 8 80 21 6 20 7 -8 8 l-33 1 0 -100z"/>
<path d="M3470 1890 l0 -100 28 1 c23 0 24 2 7 8 -18 7 -19 16 -16 99 2 61 -1
92 -8 92 -7 0 -11 -35 -11 -100z"/>
<path d="M3561 1915 c-6 -42 -11 -88 -10 -103 0 -26 1 -26 9 -4 12 28 50 30
50 2 0 -11 5 -20 11 -20 6 0 9 9 6 23 -3 12 -11 57 -18 100 -8 45 -18 77 -25
77 -7 0 -16 -30 -23 -75z m38 -42 c1 -23 -4 -33 -14 -33 -16 0 -19 27 -8 81 7
33 7 33 14 9 4 -14 7 -40 8 -57z"/>
<path d="M3653 1973 c3 -10 11 -55 17 -100 7 -48 17 -83 24 -83 10 0 48 189
39 199 -8 10 -13 -10 -24 -85 -13 -87 -22 -80 -34 29 -4 31 -11 57 -16 57 -6
0 -8 -8 -6 -17z"/>
<path d="M3774 1977 c-3 -8 -4 -52 -2 -98 3 -80 4 -84 27 -87 13 -2 28 2 32
10 10 15 12 148 3 172 -7 19 -53 21 -60 3z m44 -91 c3 -80 1 -87 -15 -84 -15
3 -18 15 -21 77 -3 82 2 105 21 99 8 -3 13 -33 15 -92z"/>
<path d="M3880 1890 c0 -60 4 -100 10 -100 6 0 10 23 10 51 0 43 3 50 18 47
13 -2 18 -15 20 -51 2 -26 6 -47 11 -47 4 0 4 24 1 54 -3 29 -3 64 1 78 10 40
-6 68 -41 68 l-30 0 0 -100z m55 50 c0 -25 -5 -36 -17 -38 -15 -3 -18 4 -18
38 0 34 3 41 18 38 12 -2 17 -13 17 -38z"/>
<path d="M1440 1930 c15 -27 58 -44 84 -32 20 8 20 9 -4 25 -14 9 -40 19 -58
22 -31 5 -32 4 -22 -15z"/>
<path d="M5033 1915 c-26 -18 -30 -61 -9 -90 12 -17 11 -21 -10 -38 -46 -36
-21 -107 38 -107 28 0 58 28 61 57 1 19 3 19 29 4 25 -14 30 -14 55 -1 21 12
29 24 31 50 2 29 0 32 -8 18 -6 -10 -20 -18 -30 -18 -29 0 -27 40 2 48 21 5
21 6 2 13 -10 4 -29 5 -41 2 -19 -4 -23 -1 -23 18 -1 21 -2 22 -11 7 -12 -21
-45 -24 -52 -4 -3 8 2 16 15 19 11 3 18 12 16 19 -7 19 -40 21 -65 3z m77
-121 c0 -17 -22 -14 -28 4 -2 7 3 12 12 12 9 0 16 -7 16 -16z m-16 -48 c-4 -9
-14 -16 -23 -14 -20 4 -27 38 -9 49 18 11 40 -13 32 -35z"/>
<path d="M1196 1815 c-3 -8 -2 -14 2 -13 4 2 25 -5 47 -14 22 -9 43 -17 47
-18 4 -1 31 -8 60 -16 29 -7 70 -14 91 -14 33 0 37 3 37 26 0 14 -4 23 -9 20
-5 -3 -66 5 -136 19 -70 14 -128 25 -130 25 -2 0 -5 -7 -9 -15z"/>
<path d="M4740 1827 c0 -2 10 -16 23 -30 l23 -27 11 30 c11 30 11 30 -23 30
-19 0 -34 -2 -34 -3z"/>
<path d="M4623 1716 c-53 -89 -53 -96 4 -96 15 0 39 14 60 35 31 31 35 40 30
72 -4 20 -15 45 -25 55 -18 18 -20 16 -69 -66z"/>
<path d="M1567 1776 c-3 -8 0 -13 6 -12 15 2 22 19 9 24 -5 1 -12 -4 -15 -12z"/>
<path d="M970 1762 c0 -5 11 -19 25 -32 19 -18 29 -21 46 -14 18 9 16 11 -25
32 -25 12 -46 18 -46 14z"/>
<path d="M1583 1724 c-12 -13 -19 -24 -15 -24 4 0 0 -5 -8 -10 -11 -7 -11 -10
-2 -10 7 0 11 -4 7 -9 -8 -13 43 -51 69 -51 49 1 52 15 13 74 -21 31 -38 56
-40 55 -1 -1 -12 -12 -24 -25z"/>
<path d="M4876 1638 c-9 -12 -16 -29 -16 -38 0 -29 30 -60 58 -60 15 0 32 4
38 8 19 12 34 50 27 68 -6 15 -7 14 -15 -5 -11 -31 -43 -24 -43 9 0 19 5 25
22 24 12 0 20 3 17 8 -3 4 -20 8 -39 8 -24 0 -39 -7 -49 -22z"/>
<path d="M5378 1649 c-24 -14 -24 -71 0 -92 26 -24 68 -21 86 5 19 26 21 64 4
74 -6 4 -8 3 -5 -3 4 -6 0 -19 -8 -29 -15 -19 -15 -19 -30 1 -15 18 -14 21 6
38 l21 17 -28 0 c-16 0 -37 -5 -46 -11z"/>
<path d="M1150 1630 c20 -13 33 -13 25 0 -3 6 -14 10 -23 10 -15 0 -15 -2 -2
-10z"/>
<path d="M863 1606 c2 -6 39 -23 83 -38 71 -24 144 -33 224 -28 23 1 24 2 5
10 -11 5 -69 19 -130 31 -60 11 -127 24 -148 29 -26 5 -37 4 -34 -4z"/>
<path d="M4680 1570 c-8 -5 -34 -10 -56 -10 l-42 0 15 -41 c17 -50 10 -90 -22
-140 -32 -49 -101 -77 -154 -63 l-37 10 4 -51 c8 -100 -50 -170 -143 -170 -27
0 -60 4 -72 8 -21 8 -23 5 -23 -23 0 -37 -21 -90 -43 -109 -28 -23 -19 -29 27
-20 97 18 165 62 272 176 l61 65 -5 -56 c-6 -72 14 -235 35 -289 9 -23 35 -73
56 -110 22 -38 50 -101 63 -140 l23 -72 0 115 c0 77 5 131 15 164 9 27 16 68
16 92 0 52 -41 187 -81 267 -16 31 -25 57 -20 57 5 0 29 -8 53 -19 88 -37 228
-64 309 -58 41 4 88 11 103 17 15 5 71 10 124 11 l97 0 -87 28 c-48 16 -117
47 -152 70 -35 23 -79 46 -97 52 -46 13 -201 19 -274 9 -33 -4 -62 -6 -64 -4
-2 2 8 19 23 39 27 35 106 182 106 197 0 11 -12 10 -30 -2z m297 -346 c7 -19
-13 -34 -44 -34 -25 0 -37 15 -29 35 8 21 65 19 73 -1z m-391 -359 c16 -25 13
-55 -5 -55 -18 0 -41 31 -41 56 0 32 25 31 46 -1z"/>
<path d="M5050 1572 c-51 -16 -67 -79 -28 -106 47 -33 99 -7 97 50 -1 17 -3
22 -6 12 -3 -11 -14 -18 -29 -18 -32 0 -31 26 1 34 14 4 23 10 21 15 -8 12
-38 19 -56 13z"/>
<path d="M1567 1557 c-9 -25 7 -39 28 -23 16 12 22 12 41 0 19 -13 22 -13 27
5 4 17 2 19 -12 11 -10 -5 -22 -5 -27 -1 -18 17 -52 22 -57 8z"/>
<path d="M1730 1520 c-18 -34 -6 -100 22 -122 23 -18 72 -23 102 -12 13 5 6
19 -36 68 -82 97 -74 91 -88 66z"/>
<path d="M4481 1505 c-14 -21 -21 -43 -18 -55 5 -18 3 -19 -9 -9 -12 10 -19 7
-39 -11 -32 -30 -31 -38 1 -51 34 -12 88 4 109 34 17 25 20 80 5 108 -15 26
-21 24 -49 -16z"/>
<path d="M2961 1513 c0 -4 4 -17 9 -28 8 -19 9 -19 9 2 1 12 -3 25 -9 28 -5 3
-10 3 -9 -2z"/>
<path d="M3022 1425 c0 -55 3 -91 7 -80 4 11 4 56 1 100 l-7 80 -1 -100z"/>
<path d="M3152 1460 c-1 -37 -6 -70 -11 -75 -5 -6 -4 -20 2 -35 11 -23 12 -20
15 28 2 29 1 74 -1 100 -3 40 -4 37 -5 -18z"/>
<path d="M3256 1493 c9 -38 14 -42 14 -10 0 14 -5 29 -10 32 -7 4 -8 -3 -4
-22z"/>
<path d="M3310 1426 c0 -78 3 -95 16 -100 13 -5 14 -3 6 6 -6 8 -11 49 -10 91
0 71 2 79 21 87 20 8 20 9 -5 9 l-28 1 0 -94z"/>
<path d="M3091 1475 c-1 -29 2 -36 9 -25 8 12 10 12 10 1 0 -8 2 -12 5 -9 3 3
-1 20 -9 39 l-15 34 0 -40z"/>
<path d="M3201 1418 c0 -42 3 -79 7 -82 4 -2 6 25 4 62 -5 99 -10 107 -11 20z"/>
<path d="M2910 1472 c0 -4 14 -22 30 -40 31 -34 40 -84 18 -98 -14 -9 -40 25
-34 43 3 7 1 13 -4 13 -17 0 -11 -36 10 -55 16 -15 22 -15 35 -5 8 7 15 24 15
38 0 26 -38 92 -53 92 -5 0 -5 5 -2 10 3 6 1 10 -4 10 -6 0 -11 -3 -11 -8z"/>
<path d="M1579 1397 c39 -15 50 -34 30 -49 -10 -7 -8 -8 6 -3 11 4 33 10 49
14 26 6 27 8 12 20 -8 7 -22 11 -30 8 -7 -3 -17 -2 -22 3 -5 4 -25 11 -44 14
l-35 6 34 -13z"/>
<path d="M3257 1351 c-4 -17 -3 -21 5 -13 5 5 8 16 6 23 -3 8 -7 3 -11 -10z"/>
<path d="M1724 1309 c-2 -4 1 -11 7 -14 6 -4 8 -18 5 -31 -8 -31 0 -30 28 3
l23 27 14 -21 13 -22 28 20 c46 33 36 44 -43 45 -38 0 -72 -3 -75 -7z"/>
<path d="M1937 1303 c-4 -3 -7 -23 -7 -44 0 -29 6 -43 31 -63 33 -28 84 -34
112 -13 15 11 9 19 -52 70 -73 60 -74 61 -84 50z"/>
<path d="M4304 1301 c3 -4 -6 -13 -21 -20 -31 -14 -113 -80 -113 -91 0 -14 60
-32 86 -26 39 10 74 50 74 85 0 36 -9 61 -22 61 -5 0 -7 -4 -4 -9z"/>
<path d="M2911 1240 c-18 -15 -19 -20 -7 -20 13 0 16 -14 16 -85 0 -50 4 -85
10 -85 6 0 10 42 10 105 0 58 -1 105 -2 105 -2 -1 -14 -10 -27 -20z"/>
<path d="M3020 1240 c-6 -12 -10 -37 -8 -58 2 -29 9 -40 31 -50 20 -10 27 -20
25 -35 -4 -28 -28 -34 -35 -8 -4 17 -23 31 -23 17 0 -24 23 -56 40 -56 26 0
40 36 40 105 0 30 -4 65 -10 79 -12 32 -45 34 -60 6z m44 -16 c3 -9 6 -29 6
-45 0 -22 -5 -29 -20 -29 -17 0 -20 7 -20 38 0 50 20 72 34 36z"/>
<path d="M3171 1246 c-8 -9 -11 -44 -9 -96 2 -66 7 -85 21 -94 28 -18 52 4 55
53 4 47 -10 71 -40 71 -15 0 -19 6 -16 27 4 33 27 43 35 14 3 -12 9 -21 14
-21 11 0 11 3 -1 34 -11 29 -40 35 -59 12z m49 -131 c0 -38 -3 -45 -20 -45
-17 0 -20 7 -20 45 0 38 3 45 20 45 17 0 20 -7 20 -45z"/>
<path d="M3310 1210 c0 -46 13 -67 22 -38 10 28 28 -7 28 -53 0 -37 -4 -49
-15 -49 -8 0 -15 9 -15 20 0 11 -5 20 -11 20 -6 0 -9 -12 -7 -27 2 -22 8 -28
28 -28 19 0 26 7 33 32 14 47 1 103 -23 103 -15 0 -20 7 -20 25 0 18 5 25 20
25 11 0 20 5 20 10 0 6 -13 10 -30 10 -29 0 -30 -1 -30 -50z"/>
<path d="M1855 1180 c-3 -5 -2 -10 4 -10 5 0 13 5 16 10 3 6 2 10 -4 10 -5 0
-13 -4 -16 -10z"/>
<path d="M2175 1110 c-15 -49 38 -120 91 -120 33 0 91 37 77 50 -4 4 -43 26
-85 49 -73 39 -77 40 -83 21z"/>
<path d="M4012 1093 c-64 -36 -92 -67 -74 -85 17 -17 81 -19 107 -2 29 19 49
72 38 102 -8 20 -10 20 -71 -15z"/>
<path d="M2079 1109 c-15 -6 -34 -27 -47 -54 -29 -60 -28 -73 4 -41 32 31 50
33 57 5 6 -21 27 -18 27 4 0 7 -4 6 -10 -3 -6 -9 -7 5 -3 43 3 31 4 57 2 56
-2 0 -16 -5 -30 -10z"/>
<path d="M2445 979 c-14 -22 21 -99 45 -99 7 0 34 80 28 84 -7 4 -59 26 -63
26 -2 0 -7 -5 -10 -11z"/>
<path d="M2158 953 c6 -2 9 -10 6 -15 -5 -7 -2 -8 6 -3 21 13 3 -31 -90 -220
-135 -275 -154 -346 -104 -404 27 -33 60 -39 95 -20 27 14 14 30 -19 23 -19
-4 -32 0 -41 10 -21 25 1 79 129 311 27 50 70 129 95 177 25 49 49 87 53 87
19 -3 25 2 12 11 -9 6 -10 10 -3 10 6 0 15 -4 18 -10 10 -16 21 -11 33 15 11
24 10 25 -7 15 -29 -15 -106 -12 -148 5 -19 8 -38 15 -42 14 -3 0 0 -3 7 -6z"/>
<path d="M3880 931 c0 -12 -7 -33 -16 -46 -9 -14 -14 -25 -11 -25 4 0 36 15
73 34 64 32 65 33 36 39 -16 3 -41 9 -56 13 -22 5 -26 3 -26 -15z"/>
<path d="M3658 888 c24 -24 84 -30 104 -10 15 15 -29 32 -85 32 l-41 0 22 -22z"/>
<path d="M2734 869 c7 -36 36 -74 46 -62 4 5 12 23 18 41 12 35 13 35 -42 47
-28 6 -29 5 -22 -26z"/>
<path d="M2369 769 c-23 -75 -33 -124 -33 -177 -1 -69 1 -75 27 -98 32 -28 69
-31 91 -8 22 22 20 23 -17 17 -55 -9 -64 13 -42 100 10 40 31 103 47 140 16
38 28 70 26 70 -2 1 -17 15 -35 31 l-31 28 -33 -103z"/>
<path d="M3477 845 c-37 -25 -50 -55 -23 -55 19 0 66 46 66 65 0 19 1 20 -43
-10z"/>
<path d="M3577 831 c-3 -15 -17 -42 -31 -58 l-26 -31 38 -7 c58 -12 92 -14 92
-5 0 5 9 8 20 7 11 -1 20 -6 20 -12 0 -5 5 -3 11 5 8 12 9 11 5 -5 -9 -34 48
-114 99 -136 58 -26 161 -35 208 -20 46 16 48 31 3 29 -19 -1 -49 8 -68 20
-19 12 -52 25 -74 30 -31 7 -38 12 -36 28 2 10 5 24 5 29 1 6 -15 11 -35 13
-21 2 -38 7 -38 11 0 5 11 6 25 3 18 -3 25 0 25 11 0 8 7 18 16 21 8 3 12 2 9
-4 -3 -6 1 -10 10 -10 10 0 15 7 13 18 -2 9 3 16 10 15 18 -4 15 22 -5 39 -20
18 -46 16 -89 -7 -54 -28 -137 -14 -173 29 -19 23 -28 20 -34 -13z m273 -35
c0 -2 -8 -10 -17 -17 -16 -13 -17 -12 -4 4 13 16 21 21 21 13z m-105 -56 c3
-5 1 -10 -4 -10 -6 0 -11 5 -11 10 0 6 2 10 4 10 3 0 8 -4 11 -10z"/>
<path d="M3158 840 c-34 -10 -88 -42 -88 -52 0 -12 37 -28 65 -28 29 0 85 49
85 74 0 17 -19 19 -62 6z"/>
<path d="M2681 767 c-6 -17 -28 -104 -51 -192 -48 -192 -74 -261 -101 -268
-19 -5 -49 16 -49 34 0 5 -4 9 -10 9 -17 0 -11 -46 8 -63 26 -23 84 -21 115 3
39 31 71 108 122 284 l45 159 -35 33 -34 34 -10 -33z"/>
<path d="M3255 759 c-39 -59 -130 -78 -203 -42 -39 19 -39 19 -56 -1 -9 -11
-16 -23 -16 -28 0 -32 152 -44 206 -15 37 19 94 82 94 102 0 21 -2 19 -25 -16z"/>
<path d="M3550 698 c0 -5 -6 -8 -12 -7 -21 3 -78 -13 -84 -23 -4 -6 3 -8 17
-4 l24 7 -25 -15 c-14 -8 -29 -12 -35 -9 -5 4 -7 3 -3 -1 3 -4 -5 -24 -18 -43
-37 -55 -30 -134 8 -87 32 39 99 101 126 118 11 7 12 4 4 -11 -13 -23 -91
-103 -118 -120 -28 -18 4 -17 47 1 52 22 85 66 113 149 4 11 11 15 18 11 7 -4
10 -4 6 1 -4 4 -3 14 3 22 14 16 14 15 -33 18 -21 1 -38 -2 -38 -7z"/>
<path d="M3250 661 c0 -5 -10 -7 -21 -4 -16 4 -20 2 -17 -8 4 -10 18 -13 47
-11 29 2 41 -1 41 -10 0 -7 9 -2 20 12 11 14 20 20 20 13 0 -18 -98 -107 -133
-120 -18 -6 -44 -12 -58 -12 -52 -2 -89 -21 -89 -47 0 -28 10 -29 90 -10 73
17 112 38 145 78 16 18 32 32 37 30 5 -1 7 2 3 8 -9 15 23 62 37 54 7 -4 8 -3
4 5 -4 6 -12 9 -17 6 -5 -4 -9 -2 -9 4 0 5 6 12 13 14 6 3 2 6 -10 6 -12 1
-29 -6 -37 -15 -15 -14 -16 -14 -17 3 0 10 -3 13 -6 6 -2 -7 -9 -13 -14 -13
-6 0 -7 5 -4 10 3 6 -1 10 -9 10 -9 0 -16 -4 -16 -9z"/>
<path d="M3185 631 c3 -5 0 -11 -6 -13 -7 -2 -4 -10 7 -18 13 -11 16 -12 10
-1 -5 8 -4 16 4 21 8 5 7 9 -5 13 -9 4 -14 3 -10 -2z"/>
<path d="M3145 590 c-3 -6 1 -7 9 -4 18 7 21 14 7 14 -6 0 -13 -4 -16 -10z"/>
<path d="M3640 441 c0 -17 6 -21 33 -21 46 0 109 -19 132 -39 44 -39 63 -34
28 5 -37 41 -81 64 -137 70 -53 6 -56 5 -56 -15z"/>
</g>
</svg>
